:FULLY-SPECIFIED
:FORCE-ALL-JOINTS-BE-3DOF
:DEGREES
356
root 9.42478 17.0101 13.7791 6.53332 5.92254 -1.16678
lfemur -22.768 5.05645 -19.2777
ltibia 50.982 -0 0
lfoot -13.6547 9.67462 0.012914
ltoes -4.35254 0 0
rfemur -21.0074 9.22876 23.6112
rtibia 29.9606 -0 0
rfoot -20.6862 -1.97616 0.384468
rtoes -15.5967 0 0
lowerback -6.25112 -1.38384 -1.57765
upperback -0.852483 -1.80736 2.5647
thorax 2.82577 -0.931092 3.33914
lowerneck -19.4299 -5.79294 -13.4854
upperneck 20.8187 -7.49682 13.8966
head 11.0176 -2.91892 6.20117
lclavicle -4.94682e-15 -1.62939e-14 2.33571e-30
lhumerus -39.1921 -22.877 97.6736
lradius 30.1781 -0 0
lwrist 13.1682 0 0
lhand -13.6805 -21.9636 0.00618469
lfingers 7.12502 -0 0
lthumb 12.4369 7.64339 0.00533022
rclavicle -4.94682e-15 -1.62939e-14 2.33571e-30
rhumerus -38.3238 15.7409 -84.7028
rradius 41.6188 -0 0
rwrist -22.3563 0 0
rhand -29.9568 -26.551 -9.09011e-05
rfingers 7.12502 -0 0
rthumb -3.27573 -56.5056 -8.8373e-05
357
root 9.41276 17.0147 13.9341 6.52025 5.89138 -1.29456
lfemur -23.4833 5.16469 -19.1037
ltibia 52.0016 -0 0
lfoot -13.6389 9.84532 0.0119744
ltoes -4.4666 0 0
rfemur -20.6035 8.96383 24.0488
rtibia 30.0494 -0 0
rfoot -20.4613 -1.62178 0.356442
rtoes -15.4496 0 0
lowerback -6.21397 -1.31287 -1.46818
upperback -0.857007 -1.72069 2.57838
thorax 2.78635 -0.88613 3.30313
lowerneck -19.4335 -5.81472 -13.4963
upperneck 20.7986 -7.52955 13.9265
head 11.018 -2.93126 6.20834
lclavicle -3.4535e-15 -1.66197e-14 2.16584e-30
lhumerus -39.7023 -22.6078 97.7567
lradius 30.0505 -0 0
lwrist 13.0757 0 0
lhand -13.727 -21.9913 0.00573488
lfingers 7.12502 -0 0
lthumb 12.3921 7.61863 0.00494256
rclavicle -3.4535e-15 -1.66197e-14 2.16584e-30
rhumerus -38.0962 15.9239 -84.7156
rradius 41.7429 -0 0
rwrist -22.4027 0 0
rhand -29.9598 -26.5445 -8.42901e-05
rfingers 7.12502 -0 0
rthumb -3.27857 -56.4991 -8.19459e-05
358
root 9.40075 17.0194 14.0891 6.50726 5.86018 -1.42232
lfemur -24.1984 5.27507 -18.9312
ltibia 53.0212 -0 0
lfoot -13.6232 10.016 0.010988
ltoes -4.58066 0 0
rfemur -20.202 8.69587 24.4842
rtibia 30.1382 -0 0
rfoot -20.2365 -1.26752 0.327026
rtoes -15.3026 0 0
lowerback -6.17669 -1.24196 -1.35868
upperback -0.86151 -1.63403 2.59206
thorax 2.7469 -0.841193 3.26709
lowerneck -19.4371 -5.8365 -13.5072
upperneck 20.7784 -7.56227 13.9564
head 11.0185 -2.9436 6.21552
lclavicle -1.96017e-15 -1.69456e-14 1.98748e-30
lhumerus -40.2111 -22.3379 97.8371
lradius 29.923 -0 0
lwrist 12.9831 0 0
lhand -13.7736 -22.019 0.00526258
lfingers 7.12502 -0 0
lthumb 12.3472 7.59387 0.00453551
rclavicle -1.96017e-15 -1.69456e-14 1.98748e-30
rhumerus -37.8684 16.107 -84.7278
rradius 41.8671 -0 0
rwrist -22.4492 0 0
rhand -29.9627 -26.5381 -7.73486e-05
rfingers 7.12502 -0 0
rthumb -3.2814 -56.4926 -7.51974e-05
359
root 9.38873 17.024 14.2441 6.49433 5.82895 -1.55006
lfemur -24.9133 5.38759 -18.7599
ltibia 54.0409 -0 0
lfoot -13.6074 10.1867 0.00995459
ltoes -4.69472 0 0
rfemur -19.8029 8.42491 24.9173
rtibia 30.227 -0 0
rfoot -20.012 -0.913374 0.296222
rtoes -15.1556 0 0
lowerback -6.13927 -1.17113 -1.24913
upperback -0.865993 -1.54737 2.60572
thorax 2.70742 -0.796281 3.23101
lowerneck -19.4407 -5.85829 -13.5182
upperneck 20.7583 -7.59498 13.9863
head 11.0189 -2.95594 6.22269
lclavicle -4.66836e-16 -1.72715e-14 1.80062e-30
lhumerus -40.7185 -22.0674 97.9148
lradius 29.7955 -0 0
lwrist 12.8906 0 0
lhand -13.8201 -22.0467 0.00476779
lfingers 7.12502 -0 0
lthumb 12.3024 7.56911 0.00410908
rclavicle -4.66836e-16 -1.72715e-14 1.80062e-30
rhumerus -37.6405 16.2901 -84.7392
rradius 41.9912 -0 0
rwrist -22.4957 0 0
rhand -29.9656 -26.5316 -7.00765e-05
rfingers 7.12502 -0 0
rthumb -3.28424 -56.4861 -6.81275e-05
360
root 9.37671 17.0286 14.3991 6.48147 5.7977 -1.67779
lfemur -25.628 5.50223 -18.5901
ltibia 55.0605 -0 0
lfoot -13.5917 10.3574 0.00887431
ltoes -4.80877 0 0
rfemur -19.4061 8.15098 25.3483
rtibia 30.3158 -0 0
rfoot -19.7876 -0.559354 0.26403
rtoes -15.0086 0 0
lowerback -6.10172 -1.10037 -1.13954
upperback -0.870454 -1.4607 2.61938
thorax 2.66791 -0.751393 3.19491
lowerneck -19.4443 -5.88007 -13.5291
upperneck 20.7381 -7.62768 14.0163
head 11.0194 -2.96829 6.22986
lclavicle 1.02649e-15 -1.75974e-14 1.60527e-30
lhumerus -41.2246 -21.7962 97.9897
lradius 29.668 -0 0
lwrist 12.798 0 0
lhand -13.8666 -22.0744 0.00425051
lfingers 7.12502 -0 0
lthumb 12.2575 7.54435 0.00366328
rclavicle 1.02649e-15 -1.75974e-14 1.60527e-30
rhumerus -37.4123 16.4732 -84.7498
rradius 42.1154 -0 0
rwrist -22.5422 0 0
rhand -29.9686 -26.5252 -6.24738e-05
rfingers 7.12502 -0 0
rthumb -3.28707 -56.4796 -6.07363e-05
361
root 9.3647 17.0332 14.5541 6.46868 5.76642 -1.80551
lfemur -26.3424 5.61897 -18.4217
ltibia 56.0802 -0 0
lfoot -13.5759 10.5281 0.00774713
ltoes -4.92283 0 0
rfemur -19.0117 7.87411 25.777
rtibia 30.4046 -0 0
rfoot -19.5634 -0.205465 0.230452
rtoes -14.8616 0 0
lowerback -6.06404 -1.02968 -1.0299
upperback -0.874895 -1.37403 2.63304
thorax 2.62838 -0.706531 3.15878
lowerneck -19.4478 -5.90185 -13.54
upperneck 20.7179 -7.66037 14.0463
head 11.0198 -2.98063 6.23704
lclavicle 2.51982e-15 -1.79232e-14 1.40143e-30
lhumerus -41.7293 -21.5244 98.0619
lradius 29.5405 -0 0
lwrist 12.7054 0 0
lhand -13.9131 -22.1021 0.00371075
lfingers 7.12502 -0 0
lthumb 12.2127 7.51959 0.00319809
rclavicle 2.51982e-15 -1.79232e-14 1.40143e-30
rhumerus -37.184 16.6564 -84.7597
rradius 42.2396 -0 0
rwrist -22.5887 0 0
rhand -29.9715 -26.5187 -5.45406e-05
rfingers 7.12502 -0 0
rthumb -3.28991 -56.4731 -5.30238e-05
362
root 9.35268 17.0379 14.7092 6.45597 5.7351 -1.93321
lfemur -27.0567 5.73778 -18.2547
ltibia 57.0998 -0 0
lfoot -13.5602 10.6988 0.00657308
ltoes -5.03689 0 0
rfemur -18.6196 7.59434 26.2036
rtibia 30.4934 -0 0
rfoot -19.3395 0.14829 0.195491
rtoes -14.7146 0 0
lowerback -6.02622 -0.959061 -0.920225
upperback -0.879314 -1.28737 2.64668
thorax 2.58882 -0.661694 3.12262
lowerneck -19.4514 -5.92364 -13.5509
upperneck 20.6976 -7.69305 14.0762
head 11.0203 -2.99297 6.24421
lclavicle 4.01315e-15 -1.82491e-14 1.18909e-30
lhumerus -42.2327 -21.2521 98.1314
lradius 29.413 -0 0
lwrist 12.6129 0 0
lhand -13.9597 -22.1298 0.00314851
lfingers 7.12502 -0 0
lthumb 12.1678 7.49484 0.00271352
rclavicle 4.01315e-15 -1.82491e-14 1.18909e-30
rhumerus -36.9555 16.8396 -84.7688
rradius 42.3637 -0 0
rwrist -22.6352 0 0
rhand -29.9744 -26.5123 -4.62769e-05
rfingers 7.12502 -0 0
rthumb -3.29274 -56.4666 -4.49899e-05
